<svg version="1.1" id="Layer_1" xmlns="http://www.w3.org/2000/svg" xmlns:xlink="http://www.w3.org/1999/xlink" x="0px" y="0px"
	 width="100%" viewBox="0 0 512 512" enable-background="new 0 0 512 512" xml:space="preserve">
<path fill="#FFFFFF" opacity="1.000000" stroke="none" 
	d="
M513.000000,218.000000 
	C513.000000,316.296844 513.000000,414.593658 513.000000,512.945251 
	C342.433167,512.945251 171.866333,512.945251 1.000000,512.945251 
	C1.000000,394.310852 1.000000,275.621460 1.336751,156.553986 
	C4.113161,157.474976 6.552820,158.774033 9.004325,160.535217 
	C9.019569,163.496613 9.025903,165.995911 9.025931,168.495193 
	C9.026515,218.647873 9.015628,268.800568 9.073171,318.953186 
	C9.075089,320.626221 9.242230,323.282471 10.225803,323.807861 
	C15.713451,326.739227 21.476686,329.154694 27.508013,331.791962 
	C32.339264,329.825439 36.776573,327.738861 41.287678,325.826324 
	C44.588013,324.427155 46.012882,322.574310 45.997631,318.530029 
	C45.822163,271.996887 45.935749,225.462616 46.343864,178.941681 
	C75.466118,193.322861 104.216942,207.691025 132.983063,222.522705 
	C133.002838,231.291031 133.861176,239.706604 132.801819,247.873413 
	C131.386078,258.787689 134.910019,265.513947 145.640320,268.274048 
	C147.806686,268.831329 149.944992,269.497650 152.444168,270.012512 
	C157.053146,267.820099 161.254623,265.593048 165.597244,263.687683 
	C168.277130,262.511871 169.103226,260.798157 169.015137,257.942627 
	C168.830963,251.972198 169.016632,245.990356 169.387024,240.110718 
	C218.693634,264.749786 267.660492,289.297516 316.656982,313.785950 
	C317.595245,314.254852 318.883850,314.022827 320.354858,314.013550 
	C322.808105,312.907135 324.915466,311.905029 327.023132,311.378265 
	C327.023712,354.510132 327.024048,397.166687 327.024292,439.823242 
	C327.024384,452.820160 326.962769,465.817780 327.106537,478.813110 
	C327.123474,480.343658 327.837372,482.591187 328.965637,483.257477 
	C333.516449,485.944702 338.304688,488.256989 343.129700,490.431641 
	C344.201874,490.914825 345.779968,490.275482 347.485779,490.056610 
	C351.558533,488.256317 355.207306,486.391144 359.002808,484.899475 
	C362.041565,483.705200 363.078003,481.918427 363.071533,478.571014 
	C362.951874,416.710724 362.970825,354.850189 363.283783,292.838745 
	C392.739716,278.094360 421.872345,263.500946 451.004822,249.382690 
	C451.004547,294.767365 451.004486,339.676819 451.004486,384.586304 
	C451.004456,395.397858 450.888947,406.211853 451.120880,417.018433 
	C451.158600,418.777863 452.278015,421.293823 453.680573,422.103607 
	C458.655670,424.975891 463.969910,427.260620 469.469543,429.640991 
	C474.325256,427.254425 478.829376,424.914093 483.423859,422.767273 
	C485.932373,421.595215 486.997131,420.084534 486.991608,417.100586 
	C486.876251,355.067902 486.888641,293.034912 487.210144,230.864441 
	C496.029663,226.484589 504.514832,222.242294 513.000000,218.000000 
z"/>
<path fill="#CBB292" opacity="1.000000" stroke="none" 
	d="
M513.000000,181.000000 
	C513.000000,181.000000 513.000000,181.500000 512.676514,181.882812 
	C511.912170,182.499817 511.476013,182.743561 511.029663,182.966888 
	C447.016693,214.994644 383.002960,247.020905 318.668030,278.906799 
	C317.162750,278.159760 315.983826,277.543091 314.794098,276.947998 
	C210.196594,224.630920 105.598267,172.315536 1.000000,120.000000 
	C1.000000,120.000000 1.000000,119.500000 1.365056,119.230827 
	C2.783709,118.496513 3.858809,118.074387 4.887833,117.560081 
	C66.190468,86.920746 127.512032,56.318996 188.741135,25.533354 
	C193.167374,23.307867 196.571198,23.146444 201.105865,25.422375 
	C303.191895,76.658730 405.363495,127.724579 507.530304,178.799896 
	C509.282288,179.675766 511.173676,180.272842 513.000000,181.000000 
z"/>
<path fill="#FFFFFF" opacity="1.000000" stroke="none" 
	d="
M513.000000,180.533966 
	C511.173676,180.272842 509.282288,179.675766 507.530304,178.799896 
	C405.363495,127.724579 303.191895,76.658730 201.105865,25.422375 
	C196.571198,23.146444 193.167374,23.307867 188.741135,25.533354 
	C127.512032,56.318996 66.190468,86.920746 4.887833,117.560081 
	C3.858809,118.074387 2.783709,118.496513 1.365056,118.980827 
	C1.000000,79.687653 1.000000,40.375305 1.000000,1.031478 
	C171.554626,1.031478 342.109253,1.031478 513.000000,1.031478 
	C513.000000,60.688889 513.000000,120.378410 513.000000,180.533966 
z"/>
<path fill="#CB8353" opacity="1.000000" stroke="none" 
	d="
M1.000000,120.468658 
	C105.598267,172.315536 210.196594,224.630920 314.794098,276.947998 
	C315.983826,277.543091 317.162750,278.159760 318.661530,279.370544 
	C318.974335,289.635437 318.922028,299.296600 319.017212,308.956329 
	C319.034180,310.679901 319.662781,312.397491 320.009003,314.117828 
	C318.883850,314.022827 317.595245,314.254852 316.656982,313.785950 
	C267.660492,289.297516 218.693634,264.749786 169.171448,239.841278 
	C162.794556,236.641739 156.969879,233.809174 150.928238,230.701141 
	C144.796753,227.636841 138.882263,224.848007 132.967758,222.059189 
	C104.216942,207.691025 75.466118,193.322861 46.158844,178.659622 
	C39.501621,175.287445 33.400852,172.210358 27.080803,168.841339 
	C20.905174,165.723999 14.948825,162.898544 8.992477,160.073105 
	C6.552820,158.774033 4.113161,157.474976 1.336751,156.087952 
	C1.000000,144.312439 1.000000,132.624878 1.000000,120.468658 
z"/>
<path fill="#815434" opacity="1.000000" stroke="none" 
	d="
M320.354858,314.013550 
	C319.662781,312.397491 319.034180,310.679901 319.017212,308.956329 
	C318.922028,299.296600 318.974335,289.635437 318.982819,279.510986 
	C383.002960,247.020905 447.016693,214.994644 511.029663,182.966888 
	C511.476013,182.743561 511.912170,182.499817 512.676514,182.132812 
	C513.000000,193.687561 513.000000,205.375122 513.000000,217.531342 
	C504.514832,222.242294 496.029663,226.484589 486.841553,230.861740 
	C480.370361,233.732559 474.602081,236.468506 468.528137,239.327179 
	C462.483307,242.602448 456.744141,245.754990 451.005005,248.907532 
	C421.872345,263.500946 392.739716,278.094360 362.908264,292.837006 
	C356.766235,295.723877 351.322998,298.461548 345.528351,301.205078 
	C339.125580,304.441650 333.074219,307.672302 327.022827,310.902954 
	C324.915466,311.905029 322.808105,312.907135 320.354858,314.013550 
z"/>
<path fill="#A4A3A1" opacity="1.000000" stroke="none" 
	d="
M327.023132,311.378265 
	C333.074219,307.672302 339.125580,304.441650 345.519714,301.654358 
	C345.861664,362.785309 345.848755,423.472870 345.913239,484.160370 
	C345.915344,486.158356 346.703430,488.155457 347.125122,490.152985 
	C345.779968,490.275482 344.201874,490.914825 343.129700,490.431641 
	C338.304688,488.256989 333.516449,485.944702 328.965637,483.257477 
	C327.837372,482.591187 327.123474,480.343658 327.106537,478.813110 
	C326.962769,465.817780 327.024384,452.820160 327.024292,439.823242 
	C327.024048,397.166687 327.023712,354.510132 327.023132,311.378265 
z"/>
<path fill="#606163" opacity="1.000000" stroke="none" 
	d="
M468.833801,239.204468 
	C474.602081,236.468506 480.370361,233.732559 486.507233,230.999298 
	C486.888641,293.034912 486.876251,355.067902 486.991608,417.100586 
	C486.997131,420.084534 485.932373,421.595215 483.423859,422.767273 
	C478.829376,424.914093 474.325256,427.254425 469.438171,429.189636 
	C469.059814,377.122742 469.034851,325.380219 468.987366,273.637726 
	C468.976837,262.159943 468.887054,250.682205 468.833801,239.204468 
z"/>
<path fill="#A5A5A4" opacity="1.000000" stroke="none" 
	d="
M468.528107,239.327179 
	C468.887054,250.682205 468.976837,262.159943 468.987366,273.637726 
	C469.034851,325.380219 469.059814,377.122742 469.124268,429.316589 
	C463.969910,427.260620 458.655670,424.975891 453.680573,422.103607 
	C452.278015,421.293823 451.158600,418.777863 451.120880,417.018433 
	C450.888947,406.211853 451.004456,395.397858 451.004486,384.586304 
	C451.004486,339.676819 451.004547,294.767365 451.004822,249.382706 
	C456.744141,245.754990 462.483307,242.602448 468.528107,239.327179 
z"/>
<path fill="#5F6062" opacity="1.000000" stroke="none" 
	d="
M347.485779,490.056610 
	C346.703430,488.155457 345.915344,486.158356 345.913239,484.160370 
	C345.848755,423.472870 345.861664,362.785309 345.871094,301.648499 
	C351.322998,298.461548 356.766235,295.723877 362.584991,292.987946 
	C362.970825,354.850189 362.951874,416.710724 363.071533,478.571014 
	C363.078003,481.918427 362.041565,483.705200 359.002808,484.899475 
	C355.207306,486.391144 351.558533,488.256317 347.485779,490.056610 
z"/>
<path fill="#A4A4A1" opacity="1.000000" stroke="none" 
	d="
M9.004324,160.535217 
	C14.948825,162.898544 20.905174,165.723999 27.022194,169.294373 
	C27.170479,223.941727 27.158092,277.844116 27.145708,331.746521 
	C21.476686,329.154694 15.713451,326.739227 10.225803,323.807861 
	C9.242230,323.282471 9.075089,320.626221 9.073171,318.953186 
	C9.015628,268.800568 9.026515,218.647873 9.025931,168.495193 
	C9.025903,165.995911 9.019569,163.496613 9.004324,160.535217 
z"/>
<path fill="#616163" opacity="1.000000" stroke="none" 
	d="
M27.508011,331.791962 
	C27.158092,277.844116 27.170479,223.941727 27.241472,169.586288 
	C33.400852,172.210358 39.501621,175.287445 45.787411,178.646606 
	C45.935749,225.462616 45.822163,271.996887 45.997631,318.530029 
	C46.012882,322.574310 44.588013,324.427155 41.287678,325.826324 
	C36.776573,327.738861 32.339264,329.825439 27.508011,331.791962 
z"/>
<path fill="#A6A5A3" opacity="1.000000" stroke="none" 
	d="
M132.983063,222.522705 
	C138.882263,224.848007 144.796753,227.636841 150.881851,231.171371 
	C151.042572,243.126358 150.991959,254.335907 151.070633,265.544556 
	C151.081329,267.069916 151.738449,268.590759 152.096252,270.113678 
	C149.944992,269.497650 147.806686,268.831329 145.640320,268.274048 
	C134.910019,265.513947 131.386078,258.787689 132.801819,247.873413 
	C133.861176,239.706604 133.002838,231.291031 132.983063,222.522705 
z"/>
<path fill="#616264" opacity="1.000000" stroke="none" 
	d="
M152.444168,270.012512 
	C151.738449,268.590759 151.081329,267.069916 151.070633,265.544556 
	C150.991959,254.335907 151.042572,243.126358 151.098831,231.446854 
	C156.969879,233.809174 162.794556,236.641739 168.834808,239.743744 
	C169.016632,245.990356 168.830963,251.972198 169.015137,257.942627 
	C169.103226,260.798157 168.277130,262.511871 165.597244,263.687683 
	C161.254623,265.593048 157.053146,267.820099 152.444168,270.012512 
z"/>
</svg>