<?xml version="1.0" encoding="UTF-8"?>
<svg version="1.1" viewBox="0 0 2000 2000" width="500" height="500" xmlns="http://www.w3.org/2000/svg">
<path transform="translate(1090,649)" d="m0 0h130l18 1 13 4 12 6 8 9 7 14 2 7v33l-3 19-5 25-6 25-8 19-10 18-6 7-11 9-10 6-11 3 12 6 8 9 4 10 1 16-2 18-5 22-6 26-13 54-6 27-9 36-1 2h-84l-1-2 4-13 12-52 5-23 13-56 4-20 2-8v-14l-5-5-11-3-10-1-4 19-15 63-6 28-11 47-6 28-3 11-1 1h-87l1-5 9-39 8-36 8-33 6-28 15-63 5-22 8-36 8-33 6-29 12-49 9-41 4-16zm69 79-2 1-7 31-6 26-4 23h24l6-3 8-9 6-13 7-32v-16l-5-6-6-2z"/>
<path transform="translate(1359,649)" d="m0 0h143l1 4-5 44-13 92-6 43-6 49-13 93-4 34-7 49-3 22-1 1-70 1-12-1 2-12 6-40 3-17h-53l-2 9-7 23-7 24-4 13h-84l3-11 8-25 12-36 11-34 12-36 12-38 15-44 8-26 11-33 13-40 10-30 14-43 8-26 3-7zm53 73-3 4-10 31-7 24-10 33-8 27-13 43-10 33-6 20-1 4h39l2-8 7-48 5-40 8-54 9-59 1-9z"/>
<path transform="translate(458,649)" d="m0 0h85l1 4-5 46-7 47-9 66-4 31-4 32-6 42-8 59-3 26-11 78-75 1-7-1-1-2 6-36 5-32-3 1h-46l-3 1-7 21-8 28-6 18-1 1h-83l1-4 8-25 14-43 10-30 14-43 13-41 13-38 7-22 26-80 11-33 14-43 8-25 2-3zm-6 73-4 10-13 42-9 31-10 33-8 27-14 45-7 25-2 6 37 1 2-1 3-13 4-29 4-27 4-33 10-68 4-27 3-21z"/>
<path transform="translate(937,645)" d="m0 0h33l15 3 15 5 12 7 10 8 9 11 6 12 3 10 1 9v11l-2 17-7 30-10 42-2 9-2 2h-83l-1-4 8-35 7-29 2-14-2-9-6-4h-14l-7 3-4 5-7 16-11 44-5 21-5 25-10 40-8 37-11 46-3 15v18l2 4 8 4h6l12-6 5-6 7-21 7-29 10-41 2-7h85l-1 11-6 29-10 42-8 26-5 12-8 15-8 11-9 10-10 9-15 9-14 7-20 6-13 2-14 1h-19l-18-2-14-5-11-6-10-9-8-9-6-10-5-14-2-15v-15l2-18 9-37 11-47 5-23 10-42 6-29 7-30 9-29 8-21 8-15 11-17 9-10 9-9 13-9 14-8 18-6z"/>
<path transform="translate(1571,650)" d="m0 0h172l-1 8-10 41-7 32-2 2h-85l-1 8-10 42-4 18 80 1-1 9-13 55-4 17-2 2h-46l-34 1-5 24-11 46-9 41-9 38-8 34-2 10-1 1-72 1-14-1 1-7 9-43 10-40 8-36 9-39 8-35 5-23 9-37 9-39 6-27 12-51 6-28 6-23z"/>
<path transform="translate(170,649)" d="m0 0h98l1 1-1 14-8 45-4 22-2 2h-18l-2 12-6 25-5 23-3 9h23l-1 12-9 49-4 20-2 2h-25l-9 36-8 36-9 39-7 29-6 29-6 24-1 2h-86l1-9 11-47 6-27 11-46 6-29 11-45 9-40 18-78 6-27 12-50 7-32z"/>
<path transform="translate(613,649)" d="m0 0h94l1 1-1 13-11 61-1 4-13 1-4 16-9 38-5 26h16l-1 13-11 60-1 4-21-3-2 6-11 48-8 35-5 23-14 59-4 18-2 8h-88l4-16 6-28 10-42 7-29 6-29 12-50 6-29 12-49 8-35 5-23 12-51 6-28 5-19z"/>
<path transform="translate(715,649)" d="m0 0h31l15 1 14 4 11 6 7 7 6 10 4 11 1 10v16l-2 21-8 39-5 19-6 15-10 18-8 10-9 8-10 6-10 3h-3l1 2 10 4 8 8 5 10 1 6v18l-3 18-5 23-10 41-12 50-8 36-3 10-1 1h-84l1-5 6-21 3-3 7-34 9-49 9-42 5-25v-15l12-68 2-9 10-6 8-13 4-13 5-22 1-8v-9l-3-6-11-5 7-41 5-31 2-5z"/>
<path transform="translate(1757,649)" d="m0 0h104l1 2-9 30-10 35-9 30-9 31-13 43-9 32-10 33-7 25-14 46-10 35-24 82-2 7h-28l1-7 13-56 8-36 17-71 7-33 12-50 6-28 16-66-49-1-1-1 1-9 9-39 6-27z"/>
<path transform="translate(1872,649)" d="m0 0h72l1 2-4 15-14 63-3 3h-50l-1 10-10 42-8 33-6 28-14 59-6 28-17 72-9 41-8 32-1 3h-53l7-26 12-41 16-55 13-43 10-35 9-30 10-35 14-46 7-25 12-40 11-39 5-15z"/>
<path transform="translate(276,649)" d="m0 0h62l3 1-2 11-14 63-3 8-1 1h-60l1-10 6-35 6-36z"/>
<path transform="translate(249,802)" d="m0 0h53l-4 17-12 54-3 11-1 1h-47l-1-4 4-20 10-57z" fill="#020202"/>
</svg>
